<svg version="1.1" viewBox="0.0 0.0 960.0 720.0" fill="none" stroke="none" stroke-linecap="square" stroke-miterlimit="10" xmlns:xlink="http://www.w3.org/1999/xlink" xmlns="http://www.w3.org/2000/svg"><clipPath id="p.0"><path d="m0 0l960.0 0l0 720.0l-960.0 0l0 -720.0z" clip-rule="nonzero"/></clipPath><g clip-path="url(#p.0)"><path fill="#000000" fill-opacity="0.0" d="m0 0l960.0 0l0 720.0l-960.0 0z" fill-rule="evenodd"/><path fill="#ffffff" d="m0 0l960.0 0l0 720.0l-960.0 0z" fill-rule="evenodd"/><path stroke="#000000" stroke-width="1.0" stroke-linejoin="round" stroke-linecap="butt" d="m0 0l960.0 0l0 720.0l-960.0 0z" fill-rule="evenodd"/><path fill="#f3f3f3" d="m955.8924 328.18634l0 0c-15.278137 0 -29.930542 -6.069214 -40.733826 -16.872498c-10.803284 -10.803253 -16.872498 -25.455658 -16.872498 -40.733795l57.606323 0z" fill-rule="evenodd"/><path fill="#000000" fill-opacity="0.0" d="m955.8924 328.18634l0 0c-15.278137 0 -29.930542 -6.069214 -40.733826 -16.872498c-10.803284 -10.803253 -16.872498 -25.455658 -16.872498 -40.733795" fill-rule="evenodd"/><path stroke="#000000" stroke-width="2.0" stroke-linejoin="round" stroke-linecap="butt" d="m955.8924 328.18634l0 0c-15.278137 0 -29.930542 -6.069214 -40.733826 -16.872498c-10.803284 -10.803253 -16.872498 -25.455658 -16.872498 -40.733795" fill-rule="evenodd"/><path fill="#000000" fill-opacity="0.0" d="m955.95276 270.6063l-57.66931 0" fill-rule="evenodd"/><path stroke="#000000" stroke-width="8.0" stroke-linejoin="round" stroke-linecap="butt" d="m955.95276 270.6063l-57.66931 0" fill-rule="evenodd"/><path fill="#f3f3f3" d="m898.28705 385.79187l0 0c0 -15.278137 6.069214 -29.930511 16.872498 -40.733795c10.803284 -10.803284 25.455627 -16.872498 40.733765 -16.872498l0 57.606293z" fill-rule="evenodd"/><path fill="#000000" fill-opacity="0.0" d="m898.28705 385.79187l0 0c0 -15.278137 6.069214 -29.930511 16.872498 -40.733795c10.803284 -10.803284 25.455627 -16.872498 40.733765 -16.872498" fill-rule="evenodd"/><path stroke="#000000" stroke-width="2.0" stroke-linejoin="round" stroke-linecap="butt" d="m898.28705 385.79187l0 0c0 -15.278137 6.069214 -29.930511 16.872498 -40.733795c10.803284 -10.803284 25.455627 -16.872498 40.733765 -16.872498" fill-rule="evenodd"/><path fill="#000000" fill-opacity="0.0" d="m954.4409 385.7979l-56.15747 0" fill-rule="evenodd"/><path stroke="#000000" stroke-width="8.0" stroke-linejoin="round" stroke-linecap="butt" d="m954.4409 385.7979l-56.15747 0" fill-rule="evenodd"/><path fill="#f3f3f3" d="m870.42145 55.85585l0 0c-12.696106 0 -24.872253 -5.2407684 -33.849792 -14.569397c-8.977478 -9.32863 -14.020996 -21.980967 -14.020996 -35.17364l47.87079 0z" fill-rule="evenodd"/><path fill="#000000" fill-opacity="0.0" d="m870.42145 55.85585l0 0c-12.696106 0 -24.872253 -5.2407684 -33.849792 -14.569397c-8.977478 -9.32863 -14.020996 -21.980967 -14.020996 -35.17364" fill-rule="evenodd"/><path stroke="#000000" stroke-width="2.0" stroke-linejoin="round" stroke-linecap="butt" d="m870.42145 55.85585l0 0c-12.696106 0 -24.872253 -5.2407684 -33.849792 -14.569397c-8.977478 -9.32863 -14.020996 -21.980967 -14.020996 -35.17364" fill-rule="evenodd"/><path fill="#000000" fill-opacity="0.0" d="m870.16473 -0.6334541l0.26171875 56.487858" fill-rule="evenodd"/><path stroke="#000000" stroke-width="8.0" stroke-linejoin="round" stroke-linecap="butt" d="m870.16473 -0.6334541l0.26171875 56.487858" fill-rule="evenodd"/><path fill="#000000" fill-opacity="0.0" d="m711.66144 41.700787l148.25195 0l0 42.01575l-148.25195 0z" fill-rule="evenodd"/><path fill="#000000" d="m722.1302 68.62079l0 -13.359379l5.921875 0q1.78125 0 2.703125 0.359375q0.9375 0.359375 1.484375 1.28125q0.5625 0.90625 0.5625 2.015625q0 1.40625 -0.921875 2.390625q-0.921875 0.96875 -2.84375 1.234375q0.703125 0.34375 1.078125 0.671875q0.765625 0.703125 1.453125 1.7656288l2.328125 3.640625l-2.21875 0l-1.765625 -2.78125q-0.78125 -1.203125 -1.28125 -1.828125q-0.5 -0.6406288 -0.90625 -0.8906288q-0.390625 -0.265625 -0.796875 -0.359375q-0.296875 -0.078125 -0.984375 -0.078125l-2.046875 0l0 5.937504l-1.765625 0zm1.765625 -7.453129l3.796875 0q1.21875 0 1.890625 -0.25q0.6875 -0.265625 1.046875 -0.8125q0.359375 -0.546875 0.359375 -1.1875q0 -0.953125 -0.6875 -1.5625q-0.6875 -0.609375 -2.1875 -0.609375l-4.21875 0l0 4.421875zm11.707275 7.453129l0 -13.359379l9.65625 0l0 1.578125l-7.875 0l0 4.09375l7.375 0l0 1.5625l-7.375 0l0 4.546879l8.1875 0l0 1.578125l-9.96875 0zm11.8186035 -4.296875l1.65625 -0.140625q0.125 1.0 0.546875 1.640625q0.4375 0.640625 1.34375 1.046875q0.921875 0.390625 2.0625 0.390625q1.0 0 1.78125 -0.296875q0.78125 -0.296875 1.15625 -0.8125q0.375 -0.53125 0.375 -1.15625q0 -0.625 -0.375 -1.0937538q-0.359375 -0.46875 -1.1875 -0.796875q-0.546875 -0.203125 -2.390625 -0.640625q-1.828125 -0.453125 -2.5625 -0.84375q-0.96875 -0.5 -1.4375 -1.234375q-0.46875 -0.75 -0.46875 -1.671875q0 -1.0 0.578125 -1.875q0.578125 -0.890625 1.671875 -1.34375q1.109375 -0.453125 2.453125 -0.453125q1.484375 0 2.609375 0.484375q1.140625 0.46875 1.75 1.40625q0.609375 0.921875 0.65625 2.09375l-1.6875 0.125q-0.140625 -1.265625 -0.9375 -1.90625q-0.78125 -0.65625 -2.3125 -0.65625q-1.609375 0 -2.34375 0.59375q-0.734375 0.59375 -0.734375 1.421875q0 0.71875 0.53125 1.171875q0.5 0.46875 2.65625 0.96875q2.15625 0.484375 2.953125 0.84375q1.171875 0.53125 1.71875 1.359375q0.5625 0.828125 0.5625 1.9062538q0 1.0625 -0.609375 2.015625q-0.609375 0.9375 -1.75 1.46875q-1.140625 0.515625 -2.578125 0.515625q-1.8125 0 -3.046875 -0.53125q-1.21875 -0.53125 -1.921875 -1.59375q-0.6875 -1.0625 -0.71875 -2.40625zm16.443542 4.296875l0 -11.781254l-4.40625 0l0 -1.578125l10.578125 0l0 1.578125l-4.40625 0l0 11.781254l-1.765625 0zm8.020996 0l0 -13.359379l5.921875 0q1.78125 0 2.703125 0.359375q0.9375 0.359375 1.484375 1.28125q0.5625 0.90625 0.5625 2.015625q0 1.40625 -0.921875 2.390625q-0.921875 0.96875 -2.84375 1.234375q0.703125 0.34375 1.078125 0.671875q0.765625 0.703125 1.453125 1.7656288l2.328125 3.640625l-2.21875 0l-1.765625 -2.78125q-0.78125 -1.203125 -1.28125 -1.828125q-0.5 -0.6406288 -0.90625 -0.8906288q-0.390625 -0.265625 -0.796875 -0.359375q-0.296875 -0.078125 -0.984375 -0.078125l-2.046875 0l0 5.937504l-1.765625 0zm1.765625 -7.453129l3.796875 0q1.21875 0 1.890625 -0.25q0.6875 -0.265625 1.046875 -0.8125q0.359375 -0.546875 0.359375 -1.1875q0 -0.953125 -0.6875 -1.5625q-0.6875 -0.609375 -2.1875 -0.609375l-4.21875 0l0 4.421875zm11.144836 0.953125q0 -3.328125 1.78125 -5.203125q1.78125 -1.890625 4.609375 -1.890625q1.84375 0 3.328125 0.890625q1.484375 0.875 2.265625 2.46875q0.78125 1.578125 0.78125 3.578125q0 2.03125 -0.828125 3.6406288q-0.8125 1.59375 -2.3125 2.421875q-1.5 0.828125 -3.25 0.828125q-1.875 0 -3.359375 -0.90625q-1.484375 -0.921875 -2.25 -2.5q-0.765625 -1.5781288 -0.765625 -3.3281288zm1.8125 0.015625q0 2.4218788 1.296875 3.8125038q1.296875 1.390625 3.265625 1.390625q2.0 0 3.28125 -1.40625q1.28125 -1.40625 1.28125 -3.9843788q0 -1.625 -0.546875 -2.84375q-0.546875 -1.21875 -1.609375 -1.875q-1.0625 -0.671875 -2.375 -0.671875q-1.890625 0 -3.25 1.296875q-1.34375 1.28125 -1.34375 4.28125zm12.698914 -0.015625q0 -3.328125 1.78125 -5.203125q1.78125 -1.890625 4.609375 -1.890625q1.84375 0 3.328125 0.890625q1.484375 0.875 2.265625 2.46875q0.78125 1.578125 0.78125 3.578125q0 2.03125 -0.828125 3.6406288q-0.8125 1.59375 -2.3125 2.421875q-1.5 0.828125 -3.25 0.828125q-1.875 0 -3.359375 -0.90625q-1.484375 -0.921875 -2.25 -2.5q-0.765625 -1.5781288 -0.765625 -3.3281288zm1.8125 0.015625q0 2.4218788 1.296875 3.8125038q1.296875 1.390625 3.265625 1.390625q2.0 0 3.28125 -1.40625q1.28125 -1.40625 1.28125 -3.9843788q0 -1.625 -0.546875 -2.84375q-0.546875 -1.21875 -1.609375 -1.875q-1.0625 -0.671875 -2.375 -0.671875q-1.890625 0 -3.25 1.296875q-1.34375 1.28125 -1.34375 4.28125zm13.183289 6.484379l0 -13.359379l2.65625 0l3.15625 9.453129q0.4375 1.328125 0.640625 1.984375q0.234375 -0.734375 0.703125 -2.140625l3.203125 -9.296879l2.375 0l0 13.359379l-1.703125 0l0 -11.171879l-3.875 11.171879l-1.59375 0l-3.859375 -11.375004l0 11.375004l-1.703125 0zm14.9939575 -4.296875l1.65625 -0.140625q0.125 1.0 0.546875 1.640625q0.4375 0.640625 1.34375 1.046875q0.921875 0.390625 2.0625 0.390625q1.0 0 1.78125 -0.296875q0.78125 -0.296875 1.15625 -0.8125q0.375 -0.53125 0.375 -1.15625q0 -0.625 -0.375 -1.0937538q-0.359375 -0.46875 -1.1875 -0.796875q-0.546875 -0.203125 -2.390625 -0.640625q-1.828125 -0.453125 -2.5625 -0.84375q-0.96875 -0.5 -1.4375 -1.234375q-0.46875 -0.75 -0.46875 -1.671875q0 -1.0 0.578125 -1.875q0.578125 -0.890625 1.671875 -1.34375q1.109375 -0.453125 2.453125 -0.453125q1.484375 0 2.609375 0.484375q1.140625 0.46875 1.75 1.40625q0.609375 0.921875 0.65625 2.09375l-1.6875 0.125q-0.140625 -1.265625 -0.9375 -1.90625q-0.78125 -0.65625 -2.3125 -0.65625q-1.609375 0 -2.34375 0.59375q-0.734375 0.59375 -0.734375 1.421875q0 0.71875 0.53125 1.171875q0.5 0.46875 2.65625 0.96875q2.15625 0.484375 2.953125 0.84375q1.171875 0.53125 1.71875 1.359375q0.5625 0.828125 0.5625 1.9062538q0 1.0625 -0.609375 2.015625q-0.609375 0.9375 -1.75 1.46875q-1.140625 0.515625 -2.578125 0.515625q-1.8125 0 -3.046875 -0.53125q-1.21875 -0.53125 -1.921875 -1.59375q-0.6875 -1.0625 -0.71875 -2.40625z" fill-rule="nonzero"/><path fill="#f3f3f3" d="m711.9648 55.85585l0 0c-12.696167 0 -24.872253 -5.2407684 -33.849792 -14.569397c-8.977539 -9.32863 -14.021057 -21.980967 -14.021057 -35.17364l47.87085 0z" fill-rule="evenodd"/><path fill="#000000" fill-opacity="0.0" d="m711.9648 55.85585l0 0c-12.696167 0 -24.872253 -5.2407684 -33.849792 -14.569397c-8.977539 -9.32863 -14.021057 -21.980967 -14.021057 -35.17364" fill-rule="evenodd"/><path stroke="#000000" stroke-width="2.0" stroke-linejoin="round" stroke-linecap="butt" d="m711.9648 55.85585l0 0c-12.696167 0 -24.872253 -5.2407684 -33.849792 -14.569397c-8.977539 -9.32863 -14.021057 -21.980967 -14.021057 -35.17364" fill-rule="evenodd"/><path fill="#000000" fill-opacity="0.0" d="m711.70807 -0.6334541l0.26171875 56.487858" fill-rule="evenodd"/><path stroke="#000000" stroke-width="8.0" stroke-linejoin="round" stroke-linecap="butt" d="m711.70807 -0.6334541l0.26171875 56.487858" fill-rule="evenodd"/><path fill="#000000" fill-opacity="0.0" d="m796.23096 307.79266l131.33862 0l0 42.015747l-131.33862 0z" fill-rule="evenodd"/><path fill="#000000" d="m806.6997 334.71265l0 -13.359375l9.65625 0l0 1.578125l-7.875 0l0 4.09375l7.375 0l0 1.5625l-7.375 0l0 4.546875l8.1875 0l0 1.578125l-9.96875 0zm12.3967285 0l0 -13.359375l1.8125 0l7.015625 10.484375l0 -10.484375l1.6875 0l0 13.359375l-1.8125 0l-7.015625 -10.5l0 10.5l-1.6875 0zm16.894775 0l0 -11.78125l-4.40625 0l0 -1.578125l10.578125 0l0 1.578125l-4.40625 0l0 11.78125l-1.765625 0zm8.020996 0l0 -13.359375l5.921875 0q1.78125 0 2.703125 0.359375q0.9375 0.359375 1.484375 1.28125q0.5625 0.90625 0.5625 2.015625q0 1.40625 -0.921875 2.390625q-0.921875 0.96875 -2.84375 1.234375q0.703125 0.34375 1.078125 0.671875q0.765625 0.703125 1.453125 1.765625l2.328125 3.640625l-2.21875 0l-1.765625 -2.78125q-0.78125 -1.203125 -1.28125 -1.828125q-0.5 -0.640625 -0.90625 -0.890625q-0.390625 -0.265625 -0.796875 -0.359375q-0.296875 -0.078125 -0.984375 -0.078125l-2.046875 0l0 5.9375l-1.765625 0zm1.765625 -7.453125l3.796875 0q1.21875 0 1.890625 -0.25q0.6875 -0.265625 1.046875 -0.8125q0.359375 -0.546875 0.359375 -1.1875q0 -0.953125 -0.6875 -1.5625q-0.6875 -0.609375 -2.1875 -0.609375l-4.21875 0l0 4.421875zm10.207336 7.453125l5.125 -13.359375l1.90625 0l5.46875 13.359375l-2.015625 0l-1.546875 -4.046875l-5.59375 0l-1.46875 4.046875l-1.875 0zm3.859375 -5.484375l4.53125 0l-1.40625 -3.703125q-0.625 -1.6875 -0.9375 -2.765625q-0.265625 1.28125 -0.71875 2.546875l-1.46875 3.921875zm10.0372925 5.484375l0 -13.359375l1.8125 0l7.015625 10.484375l0 -10.484375l1.6875 0l0 13.359375l-1.8125 0l-7.015625 -10.5l0 10.5l-1.6875 0zm23.019836 -4.6875l1.765625 0.453125q-0.5625 2.171875 -2.0 3.328125q-1.4375 1.140625 -3.53125 1.140625q-2.15625 0 -3.515625 -0.875q-1.34375 -0.890625 -2.0625 -2.546875q-0.703125 -1.671875 -0.703125 -3.59375q0 -2.078125 0.796875 -3.625q0.796875 -1.5625 2.265625 -2.359375q1.484375 -0.8125 3.25 -0.8125q2.0 0 3.359375 1.015625q1.375 1.015625 1.90625 2.875l-1.734375 0.40625q-0.46875 -1.453125 -1.359375 -2.109375q-0.875 -0.671875 -2.203125 -0.671875q-1.546875 0 -2.578125 0.734375q-1.03125 0.734375 -1.453125 1.984375q-0.421875 1.234375 -0.421875 2.5625q0 1.703125 0.5 2.96875q0.5 1.265625 1.546875 1.90625q1.046875 0.625 2.265625 0.625q1.484375 0 2.515625 -0.859375q1.03125 -0.859375 1.390625 -2.546875zm3.9729614 4.6875l0 -13.359375l9.65625 0l0 1.578125l-7.875 0l0 4.09375l7.375 0l0 1.5625l-7.375 0l0 4.546875l8.1875 0l0 1.578125l-9.96875 0z" fill-rule="nonzero"/><path fill="#b6d7a8" d="m673.6667 454.98163l286.3307 0l0 265.00787l-286.3307 0z" fill-rule="evenodd"/><path stroke="#b6d7a8" stroke-width="1.0" stroke-linejoin="round" stroke-linecap="butt" d="m673.6667 454.98163l286.3307 0l0 265.00787l-286.3307 0z" fill-rule="evenodd"/><path fill="#efefef" d="m0 -0.0026257217l0 719.9745l721.8824 0l0 -214.96075l-43.83423 -46.933014l-78.3432 -224.34625l-41.039368 -107.949646l0 -123.907715z" fill-rule="evenodd"/><path stroke="#000000" stroke-width="1.0" stroke-linejoin="round" stroke-linecap="butt" d="m0 -0.0026257217l0 719.9745l721.8824 0l0 -214.96075l-43.83423 -46.933014l-78.3432 -224.34625l-41.039368 -107.949646l0 -123.907715z" fill-rule="evenodd"/><path fill="#b7b7b7" d="m559.6903 0.9265092l-558.7638 0l0 719.0735l721.853 0l0 -217.76117l-45.404236 0l-19.45929 12.047241l-73.20471 25.018372l-64.86615 116.758545l-56.524933 20.385803l-115.82941 -29.653503l-43.553802 -1.8530273l-119.53543 -4.6325684l-27.800537 29.65094l-28.724403 16.67981l-13.900261 12.973755l-17.6063 6.4855347l-13.900261 -9.265076l-24.091866 -7.414734l9.267715 -32.43042l61.15748 -53.745422l28.727036 -30.580017l15.750656 -37.065613l1.8530273 -113.0499l1.8556366 -91.73752l-43.553802 -8.341217l-25.944885 13.900269l-28.727036 -16.67981l-2.7795258 -127.87663l-12.973755 -69.496056l-31.503937 -28.727036l-5.56168 -30.580055l8.341209 -38.918633l103.78215 -7.412073l53.745407 6.4855633l142.70341 23.167978l60.230957 5.5590553l87.10501 13.900261l29.653534 0l25.944855 -17.606297l18.532837 -29.653543z" fill-rule="evenodd"/><path stroke="#000000" stroke-width="1.0" stroke-linejoin="round" stroke-linecap="butt" d="m559.6903 0.9265092l-558.7638 0l0 719.0735l721.853 0l0 -217.76117l-45.404236 0l-19.45929 12.047241l-73.20471 25.018372l-64.86615 116.758545l-56.524933 20.385803l-115.82941 -29.653503l-43.553802 -1.8530273l-119.53543 -4.6325684l-27.800537 29.65094l-28.724403 16.67981l-13.900261 12.973755l-17.6063 6.4855347l-13.900261 -9.265076l-24.091866 -7.414734l9.267715 -32.43042l61.15748 -53.745422l28.727036 -30.580017l15.750656 -37.065613l1.8530273 -113.0499l1.8556366 -91.73752l-43.553802 -8.341217l-25.944885 13.900269l-28.727036 -16.67981l-2.7795258 -127.87663l-12.973755 -69.496056l-31.503937 -28.727036l-5.56168 -30.580055l8.341209 -38.918633l103.78215 -7.412073l53.745407 6.4855633l142.70341 23.167978l60.230957 5.5590553l87.10501 13.900261l29.653534 0l25.944855 -17.606297l18.532837 -29.653543z" fill-rule="evenodd"/><path fill="#b7b7b7" d="m511.11844 270.0463l1.3217468 -27.746246l-31.725922 -9.791168l-187.71585 -66.91553l-48.912537 -29.378113l-10.574066 17.955093l10.574066 66.91553l31.729675 53.856033l40.97824 4.900177l33.0477 -21.218811l129.551 9.791168z" fill-rule="evenodd"/><path stroke="#000000" stroke-width="1.0" stroke-linejoin="round" stroke-linecap="butt" d="m511.11844 270.0463l1.3217468 -27.746246l-31.725922 -9.791168l-187.71585 -66.91553l-48.912537 -29.378113l-10.574066 17.955093l10.574066 66.91553l31.729675 53.856033l40.97824 4.900177l33.0477 -21.218811l129.551 9.791168z" fill-rule="evenodd"/><path fill="#b7b7b7" d="m530.9659 384.55643l-97.299225 57.451447l-139.92126 54.671906l-5.5590515 36.13913l30.577454 15.753296l171.43042 -66.71918l101.92914 -107.490814z" fill-rule="evenodd"/><path stroke="#000000" stroke-width="1.0" stroke-linejoin="round" stroke-linecap="butt" d="m530.9659 384.55643l-97.299225 57.451447l-139.92126 54.671906l-5.5590515 36.13913l30.577454 15.753296l171.43042 -66.71918l101.92914 -107.490814z" fill-rule="evenodd"/><path fill="#000000" fill-opacity="0.0" d="m0 0.44094488l960.0 0l0 719.0867l-960.0 0z" fill-rule="evenodd"/><path stroke="#000000" stroke-width="8.0" stroke-linejoin="round" stroke-linecap="butt" d="m0 0.44094488l960.0 0l0 719.0867l-960.0 0z" fill-rule="evenodd"/><path fill="#000000" fill-opacity="0.0" d="m775.9921 566.47766l142.2992 0l0 42.015747l-142.2992 0z" fill-rule="evenodd"/><path fill="#000000" d="m785.8359 589.1008l1.65625 -0.140625q0.125 1.0 0.546875 1.640625q0.4375 0.640625 1.34375 1.046875q0.921875 0.390625 2.0625 0.390625q1.0 0 1.78125 -0.296875q0.78125 -0.296875 1.15625 -0.8125q0.375 -0.53125 0.375 -1.15625q0 -0.625 -0.375 -1.09375q-0.359375 -0.46875 -1.1875 -0.796875q-0.546875 -0.203125 -2.390625 -0.640625q-1.828125 -0.453125 -2.5625 -0.84375q-0.96875 -0.5 -1.4375 -1.234375q-0.46875 -0.75 -0.46875 -1.671875q0 -1.0 0.578125 -1.875q0.578125 -0.890625 1.671875 -1.34375q1.109375 -0.453125 2.453125 -0.453125q1.484375 0 2.609375 0.484375q1.140625 0.46875 1.75 1.40625q0.609375 0.921875 0.65625 2.09375l-1.6875 0.125q-0.140625 -1.265625 -0.9375 -1.90625q-0.78125 -0.65625 -2.3125 -0.65625q-1.609375 0 -2.34375 0.59375q-0.734375 0.59375 -0.734375 1.421875q0 0.71875 0.53125 1.171875q0.5 0.46875 2.65625 0.96875q2.15625 0.484375 2.953125 0.84375q1.171875 0.53125 1.71875 1.359375q0.5625 0.828125 0.5625 1.90625q0 1.0625 -0.609375 2.015625q-0.609375 0.9375 -1.75 1.46875q-1.140625 0.515625 -2.578125 0.515625q-1.8125 0 -3.046875 -0.53125q-1.21875 -0.53125 -1.921875 -1.59375q-0.6875 -1.0625 -0.71875 -2.40625zm16.443542 4.296875l0 -11.78125l-4.40625 0l0 -1.578125l10.578125 0l0 1.578125l-4.40625 0l0 11.78125l-1.765625 0zm5.135559 0l5.125 -13.359375l1.90625 0l5.46875 13.359375l-2.015625 0l-1.546875 -4.046875l-5.59375 0l-1.46875 4.046875l-1.875 0zm3.859375 -5.484375l4.53125 0l-1.40625 -3.703125q-0.625 -1.6875 -0.9375 -2.765625q-0.265625 1.28125 -0.71875 2.546875l-1.46875 3.921875zm10.1467285 5.484375l0 -13.359375l9.015625 0l0 1.578125l-7.25 0l0 4.140625l6.265625 0l0 1.578125l-6.265625 0l0 6.0625l-1.765625 0zm11.395996 0l0 -13.359375l9.015625 0l0 1.578125l-7.25 0l0 4.140625l6.265625 0l0 1.578125l-6.265625 0l0 6.0625l-1.765625 0zm13.986816 0l5.125 -13.359375l1.90625 0l5.46875 13.359375l-2.015625 0l-1.546875 -4.046875l-5.59375 0l-1.46875 4.046875l-1.875 0zm3.859375 -5.484375l4.53125 0l-1.40625 -3.703125q-0.625 -1.6875 -0.9375 -2.765625q-0.265625 1.28125 -0.71875 2.546875l-1.46875 3.921875zm10.0841675 5.484375l0 -13.359375l5.921875 0q1.78125 0 2.703125 0.359375q0.9375 0.359375 1.484375 1.28125q0.5625 0.90625 0.5625 2.015625q0 1.40625 -0.921875 2.390625q-0.921875 0.96875 -2.84375 1.234375q0.703125 0.34375 1.078125 0.671875q0.765625 0.703125 1.453125 1.765625l2.328125 3.640625l-2.21875 0l-1.765625 -2.78125q-0.78125 -1.203125 -1.28125 -1.828125q-0.5 -0.640625 -0.90625 -0.890625q-0.390625 -0.265625 -0.796875 -0.359375q-0.296875 -0.078125 -0.984375 -0.078125l-2.046875 0l0 5.9375l-1.765625 0zm1.765625 -7.453125l3.796875 0q1.21875 0 1.890625 -0.25q0.6875 -0.265625 1.046875 -0.8125q0.359375 -0.546875 0.359375 -1.1875q0 -0.953125 -0.6875 -1.5625q-0.6875 -0.609375 -2.1875 -0.609375l-4.21875 0l0 4.421875zm11.707336 7.453125l0 -13.359375l9.65625 0l0 1.578125l-7.875 0l0 4.09375l7.375 0l0 1.5625l-7.375 0l0 4.546875l8.1875 0l0 1.578125l-9.96875 0zm10.9436035 0l5.125 -13.359375l1.90625 0l5.46875 13.359375l-2.015625 0l-1.546875 -4.046875l-5.59375 0l-1.46875 4.046875l-1.875 0zm3.859375 -5.484375l4.53125 0l-1.40625 -3.703125q-0.625 -1.6875 -0.9375 -2.765625q-0.265625 1.28125 -0.71875 2.546875l-1.46875 3.921875z" fill-rule="nonzero"/></g></svg>